<?xml version="1.0" encoding="UTF-8"?><svg id="a" xmlns="http://www.w3.org/2000/svg" viewBox="0 0 812.25 812.25"><g><path d="M234.37,115.94l-15.52,9.79,2.11,9.04-8.21,5.17-10.59-47.86,9.1-5.74,38.62,30.19-8.26,5.21-7.25-5.81Zm-21.98-17.66l4.64,19.86,11.28-7.11-15.92-12.75Z" style="fill:#373745;"/><path d="M272.3,106.28l-18.05,8.29-19.21-41.87,17.27-7.93c8.76-4.02,15.71-1.69,18.57,4.55,2.34,5.1,.74,9.68-2.73,12.87,5.12-1.33,10.49,1.5,12.75,6.42,3.06,6.66,.1,13.68-8.59,17.67Zm-18.08-34.18l-7.68,3.52,4.82,10.5,7.68-3.52c3.96-1.82,5.41-4.66,3.84-8.08-1.54-3.36-4.7-4.23-8.66-2.42Zm8.39,16.7l-8.28,3.8,5.18,11.28,8.46-3.88c4.08-1.87,5.57-4.95,3.95-8.49-1.65-3.6-5.22-4.57-9.3-2.7Z" style="fill:#373745;"/><path d="M312.15,92c-12.46,3.72-25.44-2.59-29.41-15.87-3.95-13.22,3.43-25.62,15.89-29.34,12.58-3.76,25.37,2.61,29.32,15.82,3.97,13.28-3.29,25.64-15.81,29.39Zm-2.36-7.9c7.97-2.38,11.75-9.78,9.06-18.76s-9.87-12.96-17.84-10.58c-8.03,2.4-11.85,9.67-9.16,18.65s9.91,13.09,17.94,10.69Z" style="fill:#373745;"/><path d="M333.05,38.47l9.14-1.34,4.13,28.21c.92,6.27,4.79,9.04,10.61,8.19,5.88-.86,8.8-4.62,7.88-10.89l-4.13-28.21,9.21-1.35,4.12,28.15c1.76,12.02-6,19.16-15.99,20.62-9.99,1.46-19.08-3.21-20.84-15.23l-4.12-28.15Z" style="fill:#373745;"/><path d="M380.65,32.29l33.78-.76,.17,7.46-12.27,.28,.87,38.6-9.24,.21-.87-38.6-12.27,.28-.17-7.46Z" style="fill:#373745;"/><path d="M443.48,32.81l10.35,1.73,8.8,36.2,20.1-31.37,10.29,1.72-7.59,45.44-9.11-1.52,4.94-29.55-17.11,27.52-6.9-1.15-7.3-31.6-4.94,29.55-9.11-1.52,7.59-45.44Z" style="fill:#373745;"/><path d="M529.75,60.35l-16.68-5.26-3.48,11.01,14.79,4.67-2.21,6.99-14.79-4.67-3.67,11.64,16.68,5.27-2.26,7.18-25.49-8.05,13.89-44,25.49,8.05-2.26,7.18Z" style="fill:#373745;"/><path d="M603.2,121.77l-6.36-4.38-10.03,14.57-7.61-5.24,26.12-37.95,13.97,9.62c9.13,6.29,10.15,14.59,5.62,21.17-3.97,5.76-11.92,8.94-21.71,2.21Zm3.9-6.37c4.29,2.96,7.66,2.15,9.98-1.23,2.39-3.48,1.91-6.85-2.38-9.81l-6.04-4.15-7.6,11.04,6.04,4.15Z" style="fill:#373745;"/><path d="M654.39,125.99c8.31,7.34,8.22,15.81,3.11,21.6-3.71,4.2-9.8,6.4-16.65,2.99l-4.11,21.29-8.01-7.08,4.27-20.18-3.26-2.88-11.89,13.45-6.92-6.12,30.5-34.52,12.96,11.45Zm-5.32,5.52l-5.79-5.11-8.96,10.14,5.79,5.11c3.86,3.41,7.38,2.91,10.13-.21,2.71-3.07,2.68-6.52-1.17-9.93Z" style="fill:#373745;"/><path d="M654.96,192.75c-8.47-9.87-7.98-24.29,2.54-33.32,10.47-8.98,24.8-7.28,33.27,2.58,8.55,9.97,7.93,24.24-2.53,33.22-10.52,9.03-24.76,7.43-33.27-2.49Zm6.26-5.37c5.42,6.31,13.71,6.76,20.82,.65,7.11-6.1,7.83-14.29,2.41-20.6-5.46-6.36-13.66-6.89-20.77-.79-7.11,6.1-7.93,14.37-2.47,20.73Z" style="fill:#373745;"/><path d="M711.9,189.78l15.64,23.76-6.23,4.1-10.56-16.04-9.87,6.5,8.09,12.29-6.12,4.03-8.09-12.29-16.26,10.7-5.08-7.72,38.48-25.33Z" style="fill:#373745;"/><path d="M731.98,221.73l4.46,8.09-40.36,22.23-4.46-8.09,40.36-22.23Z" style="fill:#373745;"/><path d="M745.71,248.47l-35.19,16.2,6.35,13.79-6.65,3.06-10.21-22.18,41.85-19.27,3.86,8.39Z" style="fill:#373745;"/><path d="M757.22,298.58l-5.74-16.52-10.91,3.79,5.09,14.65-6.92,2.4-5.09-14.65-11.53,4.01,5.74,16.52-7.11,2.47-8.78-25.24,43.57-15.15,8.78,25.24-7.11,2.47Z" style="fill:#373745;"/><path d="M743.28,405.79l-.51-18.34-8.86-2.79-.27-9.7,46.58,15.28,.3,10.75-45.66,17.84-.27-9.76,8.69-3.28Zm26.4-9.91l-19.45-6.13,.37,13.33,19.08-7.2Z" style="fill:#373745;"/><path d="M732.31,443.36l2.03-19.76,45.83,4.72-1.95,18.91c-.99,9.59-6.52,14.39-13.35,13.69-5.58-.57-8.72-4.28-9.7-8.89-1.45,5.09-6.62,8.28-12.01,7.72-7.29-.75-11.83-6.86-10.85-16.38Zm19.98,.53l.93-9.06-12.34-1.27-.95,9.26c-.46,4.46,1.44,7.31,5.31,7.71,3.94,.41,6.59-2.17,7.05-6.64Zm18.65,1.26l.87-8.4-11.49-1.18-.87,8.4c-.45,4.33,1.27,7.03,5.01,7.42,3.68,.38,6.04-1.9,6.48-6.23Z" style="fill:#373745;"/><path d="M724.38,484.94c3.11-12.62,15.14-20.6,28.6-17.28,13.39,3.3,20.33,15.96,17.21,28.58-3.15,12.75-15.13,20.53-28.52,17.23-13.46-3.32-20.42-15.85-17.29-28.53Zm8.01,1.98c-1.99,8.07,2.46,15.08,11.56,17.33,9.1,2.25,16.18-1.92,18.17-10,2.01-8.14-2.32-15.12-11.42-17.36-9.1-2.25-16.3,1.89-18.31,10.03Z" style="fill:#373745;"/><path d="M759.89,530.13l-3.49,8.56-26.4-10.76c-5.87-2.39-10.22-.46-12.44,4.98-2.24,5.5-.48,9.92,5.38,12.32l26.4,10.76-3.51,8.62-26.34-10.74c-11.24-4.58-13.46-14.89-9.64-24.24,3.81-9.35,12.45-14.81,23.7-10.22l26.34,10.74Z" style="fill:#373745;"/><path d="M741.03,574.34l-16.54,29.47-6.5-3.65,6.01-10.71-33.67-18.9,4.52-8.06,33.67,18.9,6.01-10.71,6.5,3.65Z" style="fill:#373745;"/><path d="M708.54,628.18l-6.77,8.02-35.63-10.89,16.73,33.29-6.72,7.97-35.21-29.7,5.96-7.06,22.9,19.32-14.94-28.75,4.51-5.35,30.9,9.84-22.9-19.32,5.96-7.06,35.21,29.71Z" style="fill:#373745;"/><path d="M640.96,688.32l13.01-11.69-7.72-8.59-11.54,10.36-4.89-5.45,11.54-10.36-8.16-9.08-13.01,11.69-5.03-5.6,19.89-17.86,30.82,34.32-19.89,17.86-5.03-5.6Z" style="fill:#373745;"/><path d="M550.8,720.45l7-3.26-7.47-16.03,8.37-3.9,19.46,41.75-15.37,7.17c-10.05,4.68-17.72,1.34-21.09-5.89-2.96-6.34-1.66-14.81,9.11-19.83Zm3.51,6.59c-4.72,2.2-5.73,5.51-4,9.22,1.78,3.83,4.94,5.12,9.66,2.92l6.64-3.09-5.66-12.14-6.64,3.09Z" style="fill:#373745;"/><path d="M521.15,762.43c-10.55,3.42-17.8-.95-20.18-8.3-1.73-5.34-.54-11.69,5.88-15.86l-16.25-14.36,10.17-3.3,15.21,13.94,4.14-1.35-5.54-17.07,8.79-2.85,14.23,43.82-16.45,5.34Zm-2.05-7.38l7.34-2.38-4.18-12.87-7.34,2.38c-4.9,1.59-6.26,4.88-4.97,8.83,1.26,3.89,4.26,5.63,9.15,4.04Z" style="fill:#373745;"/><path d="M463.36,728.94c12.81-2.26,24.97,5.52,27.37,19.17,2.4,13.59-6.37,25.05-19.18,27.31-12.94,2.28-24.9-5.53-27.3-19.12-2.41-13.65,6.23-25.09,19.1-27.36Zm1.43,8.12c-8.19,1.44-12.8,8.36-11.18,17.59,1.63,9.23,8.3,14.02,16.49,12.58,8.26-1.46,12.89-8.24,11.26-17.47s-8.33-14.15-16.58-12.69Z" style="fill:#373745;"/><path d="M436.89,779.42l-28.42,1.33-.35-7.45,19.19-.9-.55-11.8-14.7,.69-.34-7.32,14.7-.69-.91-19.45,9.23-.43,2.16,46.02Z" style="fill:#373745;"/><path d="M399.23,780.41l-9.24-.28,1.4-46.04,9.23,.28-1.39,46.04Z" style="fill:#373745;"/><path d="M369.22,778.65l3.91-38.54-15.1-1.53,.74-7.29,24.29,2.47-4.65,45.83-9.19-.93Z" style="fill:#373745;"/><path d="M320.24,763.13l17.15,3.44,2.27-11.33-15.21-3.05,1.44-7.18,15.21,3.05,2.4-11.97-17.15-3.44,1.48-7.38,26.21,5.25-9.07,45.23-26.21-5.25,1.48-7.38Z" style="fill:#373745;"/><path d="M234.96,696.66l16.05,8.9,6.91-6.21,8.49,4.7-36.85,32.32-9.41-5.21,7.88-48.38,8.54,4.74-1.6,9.15Zm-4.9,27.77l15.17-13.62-11.66-6.46-3.51,20.09Z" style="fill:#373745;"/><path d="M208.25,668.07l15.96,11.83-27.44,37-15.27-11.32c-7.74-5.74-9.05-12.95-4.96-18.46,3.34-4.51,8.13-5.31,12.6-3.8-3.64-3.85-3.74-9.92-.51-14.26,4.36-5.88,11.93-6.68,19.62-.98Zm-21.25,32.31l6.79,5.03,6.88-9.28-6.79-5.03c-3.5-2.59-6.69-2.5-8.93,.52-2.2,2.97-1.44,6.16,2.05,8.75Zm10.59-15.39l7.31,5.42,7.39-9.97-7.47-5.54c-3.6-2.67-7.02-2.5-9.34,.63-2.36,3.18-1.49,6.78,2.11,9.45Z" style="fill:#373745;"/><path d="M176.5,640.05c9.28,9.11,10.02,23.52,.31,33.42-9.66,9.84-24.09,9.37-33.37,.26-9.37-9.2-9.97-23.48-.31-33.32,9.71-9.89,24.04-9.51,33.37-.36Zm-5.78,5.89c-5.94-5.83-14.24-5.56-20.81,1.13-6.57,6.69-6.58,14.9-.65,20.73,5.98,5.87,14.19,5.7,20.76-.99,6.56-6.69,6.67-15,.69-20.87Z" style="fill:#373745;"/><path d="M119.55,647.66l-5.6-7.35,22.68-17.28c5.04-3.84,5.58-8.57,2.02-13.24-3.6-4.72-8.31-5.45-13.34-1.61l-22.68,17.28-5.64-7.4,22.62-17.24c9.66-7.36,19.66-4.03,25.78,4,6.12,8.03,6.44,18.25-3.22,25.61l-22.62,17.24Z" style="fill:#373745;"/><path d="M91.05,609l-17.02-29.2,6.44-3.75,6.18,10.61,33.36-19.44,4.65,7.98-33.36,19.44,6.18,10.61-6.44,3.75Z" style="fill:#373745;"/><path d="M61.1,553.67l-3.47-9.9,27.48-25.16-37.17-2.5-3.45-9.84,43.48-15.24,3.06,8.72-28.28,9.91,32.36,1.73,2.31,6.6-24.17,21.62,28.28-9.91,3.06,8.72-43.48,15.24Z" style="fill:#373745;"/><path d="M43.68,464.8l3.42,17.15,11.33-2.26-3.03-15.21,7.19-1.43,3.03,15.21,11.97-2.39-3.42-17.15,7.38-1.47,5.23,26.21-45.24,9.02-5.23-26.21,7.38-1.47Z" style="fill:#373745;"/><path d="M61.96,370.87l-.75,7.69,17.6,1.71-.89,9.2-45.85-4.45,1.64-16.88c1.07-11.04,7.85-15.95,15.8-15.18,6.96,.68,13.6,6.09,12.45,17.92Zm-7.46-.33c.5-5.19-1.83-7.74-5.91-8.13-4.2-.41-6.92,1.65-7.43,6.84l-.71,7.29,13.33,1.29,.71-7.29Z" style="fill:#373745;"/><path d="M40.84,324.04c2.4-10.83,9.85-14.85,17.39-13.18,5.48,1.22,10.35,5.47,10.68,13.12l20.62-6.72-2.32,10.44-19.73,6.03-.94,4.25,17.53,3.89-2,9.02-44.98-9.98,3.75-16.88Zm7.4,1.98l-1.67,7.54,13.21,2.93,1.67-7.54c1.12-5.03-1.03-7.87-5.09-8.77-4-.89-7.01,.81-8.12,5.84Z" style="fill:#373745;"/><path d="M99.03,291.25c-4.56,12.18-17.43,18.71-30.41,13.85-12.92-4.83-18.34-18.21-13.79-30.39,4.6-12.3,17.41-18.64,30.33-13.81,12.98,4.86,18.45,18.11,13.87,30.35Zm-7.73-2.89c2.92-7.79-.7-15.27-9.48-18.56-8.78-3.29-16.29,.03-19.21,7.82-2.94,7.85,.55,15.29,9.33,18.57,8.78,3.28,16.42,.01,19.35-7.84Z" style="fill:#373745;"/><path d="M69.01,242.76l13.3-25.14,6.59,3.49-8.98,16.98,10.44,5.52,6.88-13.01,6.48,3.42-6.88,13.01,17.21,9.1-4.32,8.17-40.72-21.54Z" style="fill:#373745;"/><path d="M87.33,209.82l4.95-7.8,38.91,24.67-4.95,7.8-38.91-24.67Z" style="fill:#373745;"/><path d="M104.15,184.89l31.15,23.03,9.02-12.21,5.89,4.35-14.52,19.64-37.04-27.38,5.49-7.43Z" style="fill:#373745;"/><path d="M142.46,150.67l-11.69,13,8.59,7.72,10.37-11.53,5.45,4.9-10.37,11.53,9.08,8.16,11.69-13,5.59,5.03-17.87,19.87-34.3-30.85,17.87-19.87,5.59,5.03Z" style="fill:#373745;"/></g><circle cx="560.12" cy="89.12" r="17" style="fill:#373745;"/><circle cx="751.12" cy="343.12" r="17" style="fill:#373745;"/><circle cx="600.12" cy="699.12" r="17" style="fill:#373745;"/><circle cx="54.12" cy="425.12" r="17" style="fill:#373745;"/><circle cx="284.12" cy="734.12" r="17" style="fill:#373745;"/><circle cx="179.12" cy="136.12" r="17" style="fill:#373745;"/><circle cx="406.12" cy="406.12" r="405.12" style="fill:none; stroke:#000; stroke-miterlimit:10; stroke-width:2px;"/></svg>